<svg width="185" height="40" viewBox="0 0 185 40" fill="none" xmlns="http://www.w3.org/2000/svg">
<path d="M36.5083 8.70613C32.9048 3.44887 26.8551 0 20 0C8.9543 0 0 8.9543 0 20C0 21.607 0.189533 23.1697 0.547447 24.667L10.7322 14.4822C11.7085 13.5059 13.2915 13.5059 14.2678 14.4822L22.5 22.7145L36.5083 8.70613Z" fill="#EF2A82"/>
<path d="M38.8854 13.4001L24.2678 28.0178C23.2915 28.9941 21.7085 28.9941 20.7322 28.0178L12.5 19.7855L2.53418 29.7514C5.9555 35.8662 12.495 40 20 40C31.0457 40 40 31.0457 40 20C40 17.6874 39.6075 15.4664 38.8854 13.4001Z" fill="#EF2A82"/>
<path d="M62.8083 25.056H57.6022L56.693 28H52.6342L58.4139 12.2408H61.9857L67.8088 28H63.7283L62.8083 25.056ZM58.5114 22.1228H61.8991L60.1998 16.6569L58.5114 22.1228Z" fill="white"/>
<path d="M82.1284 28H78.351L72.766 18.1938V28H68.9669V12.2408H72.766L78.3401 22.047V12.2408H82.1284V28Z" fill="white"/>
<path d="M93.6771 25.056H88.471L87.5618 28H83.503L89.2828 12.2408H92.8545L98.6776 28H94.5971L93.6771 25.056ZM89.3802 22.1228H92.7679L91.0686 16.6569L89.3802 22.1228Z" fill="white"/>
<path d="M103.635 25.0776H110.248V28H99.8357V12.2408H103.635V25.0776Z" fill="white"/>
<path d="M114.588 19.0813L117.489 12.2408H121.591L116.515 22.3392V28H112.662V22.3392L107.596 12.2408H111.677L114.588 19.0813Z" fill="white"/>
<path d="M135.305 15.174H130.575V28H126.776V15.174H122.132V12.2408H135.305V15.174Z" fill="white"/>
<path d="M140.965 28H137.177V12.2408H140.965V28Z" fill="white"/>
<path d="M156.356 22.6639C156.306 23.7607 156.01 24.7312 155.469 25.5755C154.928 26.4125 154.166 27.0619 153.185 27.5237C152.211 27.9855 151.096 28.2164 149.841 28.2164C147.77 28.2164 146.139 27.5418 144.948 26.1924C143.758 24.8431 143.162 22.9381 143.162 20.4776V19.6983C143.162 18.1541 143.429 16.8048 143.963 15.6503C144.505 14.4885 145.28 13.5938 146.29 12.966C147.301 12.331 148.47 12.0135 149.797 12.0135C151.709 12.0135 153.246 12.5186 154.408 13.5288C155.57 14.5318 156.23 15.9173 156.389 17.6851H152.601C152.572 16.7254 152.33 16.0363 151.875 15.6178C151.421 15.1993 150.728 14.99 149.797 14.99C148.852 14.99 148.159 15.3436 147.719 16.0507C147.279 16.7579 147.048 17.8871 147.026 19.4385V20.5533C147.026 22.2346 147.236 23.436 147.654 24.1576C148.08 24.8792 148.809 25.24 149.841 25.24C150.714 25.24 151.381 25.0343 151.843 24.623C152.305 24.2117 152.55 23.5587 152.579 22.6639H156.356Z" fill="white"/>
<path d="M166.282 23.8112C166.282 23.2556 166.083 22.8227 165.686 22.5124C165.297 22.2021 164.608 21.881 163.619 21.5491C162.63 21.2172 161.822 20.8961 161.195 20.5858C159.152 19.5828 158.131 18.2046 158.131 16.4512C158.131 15.5781 158.384 14.8096 158.889 14.1458C159.401 13.4747 160.123 12.9552 161.054 12.5872C161.985 12.212 163.031 12.0244 164.193 12.0244C165.326 12.0244 166.339 12.2264 167.234 12.6305C168.136 13.0346 168.836 13.6118 169.334 14.3623C169.832 15.1055 170.081 15.9569 170.081 16.9166H166.292C166.292 16.2744 166.094 15.7765 165.697 15.423C165.307 15.0694 164.777 14.8926 164.106 14.8926C163.428 14.8926 162.89 15.0441 162.493 15.3472C162.104 15.6431 161.909 16.0219 161.909 16.4837C161.909 16.8878 162.125 17.2558 162.558 17.5877C162.991 17.9124 163.753 18.2515 164.842 18.6051C165.932 18.9515 166.826 19.3267 167.526 19.7308C169.229 20.7121 170.081 22.065 170.081 23.7896C170.081 25.1678 169.561 26.2502 168.522 27.0367C167.483 27.8232 166.058 28.2164 164.247 28.2164C162.97 28.2164 161.811 27.9891 160.772 27.5345C159.741 27.0727 158.961 26.445 158.435 25.6512C157.915 24.8503 157.655 23.9303 157.655 22.8912H161.465C161.465 23.7355 161.682 24.3596 162.115 24.7637C162.555 25.1606 163.265 25.359 164.247 25.359C164.875 25.359 165.369 25.2255 165.73 24.9585C166.098 24.6843 166.282 24.3019 166.282 23.8112Z" fill="white"/>
</svg>
